<?xml version="1.0" encoding="UTF-8"?>
<!DOCTYPE svg PUBLIC "-//W3C//DTD SVG 1.1//EN" "http://www.w3.org/Graphics/SVG/1.1/DTD/svg11.dtd">
<svg xmlns="http://www.w3.org/2000/svg" version="1.1" width="130px" height="126px" style="shape-rendering:geometricPrecision; text-rendering:geometricPrecision; image-rendering:optimizeQuality; fill-rule:evenodd; clip-rule:evenodd" xmlns:xlink="http://www.w3.org/1999/xlink">
<g><path style="opacity:1" fill="#98a7be" d="M -0.5,-0.5 C 42.8333,-0.5 86.1667,-0.5 129.5,-0.5C 129.5,37.1667 129.5,74.8333 129.5,112.5C 128.833,112.5 128.167,112.5 127.5,112.5C 125.184,113.16 122.851,113.827 120.5,114.5C 119.01,113.16 117.344,112.16 115.5,111.5C 114.167,111.5 113.5,110.833 113.5,109.5C 114.552,109.649 115.552,109.483 116.5,109C 115.549,108.282 115.383,107.449 116,106.5C 118.166,103.493 120.999,101.493 124.5,100.5C 121.115,97.6305 118.781,94.1305 117.5,90C 115.19,89.5034 112.857,89.3367 110.5,89.5C 110.5,88.5 110.5,87.5 110.5,86.5C 112.167,86.5 113.833,86.5 115.5,86.5C 114.373,84.0023 113.706,81.3356 113.5,78.5C 113.837,75.8236 114.17,73.157 114.5,70.5C 117.495,33.8506 100.662,13.5172 64,9.5C 59.4439,9.5325 54.9439,10.0325 50.5,11C 46.0637,12.6064 41.7303,14.4397 37.5,16.5C 36.0622,11.7202 33.3955,7.72016 29.5,4.5C 28.1667,3.16667 26.8333,3.16667 25.5,4.5C 27.8307,10.1486 31.4973,14.482 36.5,17.5C 33.8605,19.4728 31.5272,21.8061 29.5,24.5C 25.5293,27.7759 22.5293,31.7759 20.5,36.5C 18.4155,39.8013 17.0822,43.468 16.5,47.5C 15.8333,48.1667 15.1667,48.8333 14.5,49.5C 14.1634,46.3444 14.1634,43.0111 14.5,39.5C 9.91304,39.2889 9.24637,40.7889 12.5,44C 12.0788,46.1846 11.5788,48.3513 11,50.5C 10.586,50.9574 10.086,51.2907 9.5,51.5C 8.56559,57.8447 7.56559,64.178 6.5,70.5C 6.16667,67.3333 5.83333,64.1667 5.5,61C 6.82926,51.5406 7.49593,42.0406 7.5,32.5C 8.5,32.5 9.5,32.5 10.5,32.5C 9.83787,28.5341 9.50454,24.5341 9.5,20.5C 5.59221,21.2386 3.09221,23.5719 2,27.5C 1.09788,32.2943 0.264547,36.961 -0.5,41.5C -0.5,27.5 -0.5,13.5 -0.5,-0.5 Z"/></g>
<g><path style="opacity:1" fill="#9095aa" d="M 37.5,16.5 C 37.5,17.1667 37.1667,17.5 36.5,17.5C 31.4973,14.482 27.8307,10.1486 25.5,4.5C 26.8333,3.16667 28.1667,3.16667 29.5,4.5C 33.3955,7.72016 36.0622,11.7202 37.5,16.5 Z"/></g>
<g><path style="opacity:1" fill="#fafbfc" d="M 114.5,70.5 C 112.015,74.4235 110.182,78.7569 109,83.5C 104.981,89.3425 100.481,94.6759 95.5,99.5C 93.5956,99.7376 92.2623,100.738 91.5,102.5C 87.7152,104.601 83.7152,106.268 79.5,107.5C 69.8219,110.066 60.1552,110.066 50.5,107.5C 47.5145,107.097 44.8478,106.097 42.5,104.5C 42.0269,103.094 41.0269,102.427 39.5,102.5C 32.9025,98.9042 27.5692,93.9042 23.5,87.5C 22.8897,85.5659 21.8897,83.8993 20.5,82.5C 18.5949,78.785 17.2616,74.785 16.5,70.5C 15.1667,62.8333 15.1667,55.1667 16.5,47.5C 17.0822,43.468 18.4155,39.8013 20.5,36.5C 23.9602,32.9447 26.9602,28.9447 29.5,24.5C 31.5272,21.8061 33.8605,19.4728 36.5,17.5C 37.1667,17.5 37.5,17.1667 37.5,16.5C 41.7303,14.4397 46.0637,12.6064 50.5,11C 54.9439,10.0325 59.4439,9.5325 64,9.5C 100.662,13.5172 117.495,33.8506 114.5,70.5 Z"/></g>
<g><path style="opacity:1" fill="#e0e6ef" d="M 29.5,24.5 C 26.9602,28.9447 23.9602,32.9447 20.5,36.5C 22.5293,31.7759 25.5293,27.7759 29.5,24.5 Z"/></g>
<g><path style="opacity:1" fill="#99a7be" d="M 71.5,24.5 C 93.6541,30.3451 102.987,44.6784 99.5,67.5C 98.1411,68.0065 97.1411,69.0065 96.5,70.5C 95.5224,70.0233 94.6891,69.3567 94,68.5C 91.3333,63.8333 88.6667,59.1667 86,54.5C 85.6948,52.4432 85.6948,50.4432 86,48.5C 85.6667,48.8333 85.3333,49.1667 85,49.5C 81.724,48.2099 79.724,45.8766 79,42.5C 77.0448,41.5467 75.3782,40.2134 74,38.5C 71.724,41.0636 69.724,40.7303 68,37.5C 67.6667,35.5 67.3333,33.5 67,31.5C 64.2053,32.7825 61.3719,32.7825 58.5,31.5C 63.3038,30.3196 67.9705,29.6529 72.5,29.5C 67.9903,27.9469 63.3236,27.1136 58.5,27C 57.1667,26.3333 57.1667,25.6667 58.5,25C 62.8206,24.501 67.1539,24.3343 71.5,24.5 Z"/></g>
<g><path style="opacity:1" fill="#9ba8be" d="M 43.5,30.5 C 45.7671,35.3798 47.7671,40.0464 49.5,44.5C 49.1667,45.1667 48.8333,45.8333 48.5,46.5C 44.1883,47.0142 40.1883,48.3475 36.5,50.5C 34.5842,52.1157 33.0842,51.7823 32,49.5C 31.5831,50.756 30.7498,51.4226 29.5,51.5C 30.9918,42.3488 35.6584,35.3488 43.5,30.5 Z"/></g>
<g><path style="opacity:1" fill="#fbfcfc" d="M 81.5,51.5 C 83.1474,57.3231 82.814,62.9897 80.5,68.5C 79.7888,70.0301 78.7888,71.3634 77.5,72.5C 75.246,73.1237 73.5794,74.457 72.5,76.5C 68.6002,77.4299 64.6002,77.7633 60.5,77.5C 59.448,77.6495 58.448,77.4828 57.5,77C 54.6693,74.9993 52.0026,72.8327 49.5,70.5C 48.1554,67.4699 47.1554,64.3032 46.5,61C 46.6551,57.7077 47.3218,54.541 48.5,51.5C 50.4161,47.9123 53.0828,44.9123 56.5,42.5C 67.2659,39.0603 75.5992,42.0603 81.5,51.5 Z"/></g>
<g><path style="opacity:1" fill="#949caf" d="M 46.5,28.5 C 48.1439,28.2865 49.6439,28.6198 51,29.5C 53.7122,33.4725 55.5456,37.8058 56.5,42.5C 53.0828,44.9123 50.4161,47.9123 48.5,51.5C 47.0688,52.9025 45.9022,54.5692 45,56.5C 43.6667,55.1667 42.3333,53.8333 41,52.5C 38.7545,53.7946 37.2545,53.128 36.5,50.5C 40.1883,48.3475 44.1883,47.0142 48.5,46.5C 48.8333,45.8333 49.1667,45.1667 49.5,44.5C 47.7671,40.0464 45.7671,35.3798 43.5,30.5C 43.9731,29.0937 44.9731,28.427 46.5,28.5 Z"/></g>
<g><path style="opacity:1" fill="#c7ced9" d="M 16.5,47.5 C 15.1667,55.1667 15.1667,62.8333 16.5,70.5C 15.7321,69.7375 15.2321,68.7375 15,67.5C 14.5005,61.5092 14.3338,55.5092 14.5,49.5C 15.1667,48.8333 15.8333,48.1667 16.5,47.5 Z"/></g>
<g><path style="opacity:1" fill="#dddee4" d="M 29.5,51.5 C 28.8005,55.7978 28.4672,60.1311 28.5,64.5C 27.8389,62.866 27.5056,61.0326 27.5,59C 27.2999,56.1345 27.9666,53.6345 29.5,51.5 Z"/></g>
<g><path style="opacity:1" fill="#ced4dd" d="M 81.5,51.5 C 83.0468,53.8066 83.7135,56.4733 83.5,59.5C 83.3333,61.5 83.1667,63.5 83,65.5C 82.7645,67.1193 81.9311,68.1193 80.5,68.5C 82.814,62.9897 83.1474,57.3231 81.5,51.5 Z"/></g>
<g><path style="opacity:1" fill="#9ca2b3" d="M 36.5,50.5 C 37.2545,53.128 38.7545,53.7946 41,52.5C 42.3333,53.8333 43.6667,55.1667 45,56.5C 45.9022,54.5692 47.0688,52.9025 48.5,51.5C 47.3218,54.541 46.6551,57.7077 46.5,61C 47.1554,64.3032 48.1554,67.4699 49.5,70.5C 45.0345,66.692 41.7012,62.0254 39.5,56.5C 38.6922,58.4233 38.1922,60.4233 38,62.5C 37.6924,61.6919 37.1924,61.0253 36.5,60.5C 34.1999,60.8679 32.0333,60.8679 30,60.5C 29.51,61.7932 29.3433,63.1266 29.5,64.5C 29.1667,64.5 28.8333,64.5 28.5,64.5C 28.4672,60.1311 28.8005,55.7978 29.5,51.5C 30.7498,51.4226 31.5831,50.756 32,49.5C 33.0842,51.7823 34.5842,52.1157 36.5,50.5 Z"/></g>
<g><path style="opacity:1" fill="#9eaabc" d="M 71.5,24.5 C 67.1539,24.3343 62.8206,24.501 58.5,25C 57.1667,25.6667 57.1667,26.3333 58.5,27C 63.3236,27.1136 67.9903,27.9469 72.5,29.5C 67.9705,29.6529 63.3038,30.3196 58.5,31.5C 61.3719,32.7825 64.2053,32.7825 67,31.5C 67.3333,33.5 67.6667,35.5 68,37.5C 69.724,40.7303 71.724,41.0636 74,38.5C 75.3782,40.2134 77.0448,41.5467 79,42.5C 79.724,45.8766 81.724,48.2099 85,49.5C 85.3333,49.1667 85.6667,48.8333 86,48.5C 85.6948,50.4432 85.6948,52.4432 86,54.5C 88.6667,59.1667 91.3333,63.8333 94,68.5C 94.6891,69.3567 95.5224,70.0233 96.5,70.5C 97.1411,69.0065 98.1411,68.0065 99.5,67.5C 98.1633,74.4674 94.8299,80.134 89.5,84.5C 85.4111,80.602 80.5778,79.2686 75,80.5C 70.757,78.6702 66.257,78.0035 61.5,78.5C 60.8333,78.5 60.5,78.1667 60.5,77.5C 64.6002,77.7633 68.6002,77.4299 72.5,76.5C 74.7946,75.8645 76.4613,74.5311 77.5,72.5C 78.7888,71.3634 79.7888,70.0301 80.5,68.5C 81.9311,68.1193 82.7645,67.1193 83,65.5C 83.1667,63.5 83.3333,61.5 83.5,59.5C 83.7135,56.4733 83.0468,53.8066 81.5,51.5C 75.5992,42.0603 67.2659,39.0603 56.5,42.5C 55.5456,37.8058 53.7122,33.4725 51,29.5C 49.6439,28.6198 48.1439,28.2865 46.5,28.5C 49.279,25.9165 52.6124,24.4165 56.5,24C 61.6842,23.1837 66.6842,23.3503 71.5,24.5 Z"/></g>
<g><path style="opacity:1" fill="#7f869e" d="M 43.5,84.5 C 42.1667,85.8333 40.8333,85.8333 39.5,84.5C 38.6138,82.2784 38.6138,80.1118 39.5,78C 37.4125,75.7548 36.0792,73.0881 35.5,70C 36.7115,67.7178 38.3781,67.2178 40.5,68.5C 42.143,73.7337 43.143,79.067 43.5,84.5 Z"/></g>
<g><path style="opacity:1" fill="#cbd3dd" d="M 77.5,72.5 C 76.4613,74.5311 74.7946,75.8645 72.5,76.5C 73.5794,74.457 75.246,73.1237 77.5,72.5 Z"/></g>
<g><path style="opacity:1" fill="#bfc3ce" d="M 31.5,74.5 C 32.9063,74.9731 33.573,75.9731 33.5,77.5C 32.0937,77.0269 31.427,76.0269 31.5,74.5 Z"/></g>
<g><path style="opacity:1" fill="#939daf" d="M 61.5,78.5 C 66.257,78.0035 70.757,78.6702 75,80.5C 80.5778,79.2686 85.4111,80.602 89.5,84.5C 88.1667,86.1667 86.8333,87.8333 85.5,89.5C 82.8333,90.5 80.1667,91.5 77.5,92.5C 77.8541,90.4588 77.8541,88.6255 77.5,87C 74.8333,86 72.1667,85 69.5,84C 67.6297,80.9062 64.9631,79.0728 61.5,78.5 Z"/></g>
<g><path style="opacity:1" fill="#8994aa" d="M 49.5,70.5 C 52.0026,72.8327 54.6693,74.9993 57.5,77C 58.448,77.4828 59.448,77.6495 60.5,77.5C 60.5,78.1667 60.8333,78.5 61.5,78.5C 64.9631,79.0728 67.6297,80.9062 69.5,84C 72.1667,85 74.8333,86 77.5,87C 77.8541,88.6255 77.8541,90.4588 77.5,92.5C 76.2905,92.9321 75.2905,93.5987 74.5,94.5C 73.8333,94.5 73.1667,94.5 72.5,94.5C 69.1501,94.665 65.8168,94.4983 62.5,94C 58.122,89.1589 53.7887,84.3256 49.5,79.5C 48.3112,78.5713 46.9778,78.238 45.5,78.5C 47.3763,81.3047 46.7097,83.3047 43.5,84.5C 43.143,79.067 42.143,73.7337 40.5,68.5C 38.3781,67.2178 36.7115,67.7178 35.5,70C 36.0792,73.0881 37.4125,75.7548 39.5,78C 38.6138,80.1118 38.6138,82.2784 39.5,84.5C 39.1667,84.5 38.8333,84.5 38.5,84.5C 36.5907,82.3512 34.924,80.0179 33.5,77.5C 33.573,75.9731 32.9063,74.9731 31.5,74.5C 29.9767,71.3652 29.31,68.0318 29.5,64.5C 29.3433,63.1266 29.51,61.7932 30,60.5C 32.0333,60.8679 34.1999,60.8679 36.5,60.5C 37.1924,61.0253 37.6924,61.6919 38,62.5C 38.1922,60.4233 38.6922,58.4233 39.5,56.5C 41.7012,62.0254 45.0345,66.692 49.5,70.5 Z"/></g>
<g><path style="opacity:1" fill="#c3ccda" d="M 20.5,82.5 C 21.8897,83.8993 22.8897,85.5659 23.5,87.5C 21.2407,86.656 20.2407,84.9893 20.5,82.5 Z"/></g>
<g><path style="opacity:1" fill="#a0acbe" d="M 114.5,70.5 C 114.17,73.157 113.837,75.8236 113.5,78.5C 113.706,81.3356 114.373,84.0023 115.5,86.5C 113.833,86.5 112.167,86.5 110.5,86.5C 110.5,87.5 110.5,88.5 110.5,89.5C 112.857,89.3367 115.19,89.5034 117.5,90C 118.781,94.1305 121.115,97.6305 124.5,100.5C 120.999,101.493 118.166,103.493 116,106.5C 115.383,107.449 115.549,108.282 116.5,109C 115.552,109.483 114.552,109.649 113.5,109.5C 113.981,105.651 112.314,103.651 108.5,103.5C 108.276,100.278 106.609,98.2775 103.5,97.5C 100.767,97.968 98.1,98.6347 95.5,99.5C 100.481,94.6759 104.981,89.3425 109,83.5C 110.182,78.7569 112.015,74.4235 114.5,70.5 Z"/></g>
<g><path style="opacity:1" fill="#97a4bb" d="M 72.5,94.5 C 68.3656,95.4849 64.0323,95.8182 59.5,95.5C 59.3893,94.8826 59.056,94.3826 58.5,94C 55.2231,92.8566 51.8898,92.0233 48.5,91.5C 44.4584,90.1486 41.1251,87.8152 38.5,84.5C 38.8333,84.5 39.1667,84.5 39.5,84.5C 40.8333,85.8333 42.1667,85.8333 43.5,84.5C 46.7097,83.3047 47.3763,81.3047 45.5,78.5C 46.9778,78.238 48.3112,78.5713 49.5,79.5C 53.7887,84.3256 58.122,89.1589 62.5,94C 65.8168,94.4983 69.1501,94.665 72.5,94.5 Z"/></g>
<g><path style="opacity:1" fill="#dadfe7" d="M 85.5,89.5 C 85.4226,90.7498 84.756,91.5831 83.5,92C 80.5682,93.1449 77.5682,93.9782 74.5,94.5C 75.2905,93.5987 76.2905,92.9321 77.5,92.5C 80.1667,91.5 82.8333,90.5 85.5,89.5 Z"/></g>
<g><path style="opacity:1" fill="#acb8c6" d="M 48.5,91.5 C 51.8898,92.0233 55.2231,92.8566 58.5,94C 59.056,94.3826 59.3893,94.8826 59.5,95.5C 55.3266,95.3333 51.6599,94 48.5,91.5 Z"/></g>
<g><path style="opacity:1" fill="#8f9fb7" d="M 17.5,100.5 C 14.4484,98.8217 11.1151,98.155 7.5,98.5C 10.0307,107.308 11.0307,116.308 10.5,125.5C 6.83333,125.5 3.16667,125.5 -0.5,125.5C -0.5,107.167 -0.5,88.8333 -0.5,70.5C 1.19919,70.3398 2.86586,70.5065 4.5,71C 2.88664,73.2276 2.21997,75.7276 2.5,78.5C 5.32454,78.9193 7.49121,77.9193 9,75.5C 10.6576,52.8918 11.6576,52.8918 12,75.5C 13.6667,81.1667 15.3333,86.8333 17,92.5C 17.4974,95.146 17.6641,97.8127 17.5,100.5 Z"/></g>
<g><path style="opacity:1" fill="#8a99b2" d="M 17.5,100.5 C 20.1873,100.336 22.854,100.503 25.5,101C 30.9376,102.444 36.2709,104.277 41.5,106.5C 41.1667,106.833 40.8333,107.167 40.5,107.5C 35.8867,106.721 31.22,106.221 26.5,106C 23.9999,105.625 21.6666,104.792 19.5,103.5C 18.5,104.5 17.5,105.5 16.5,106.5C 17.8788,110.891 19.7121,114.557 22,117.5C 22.4974,120.146 22.6641,122.813 22.5,125.5C 18.5,125.5 14.5,125.5 10.5,125.5C 11.0307,116.308 10.0307,107.308 7.5,98.5C 11.1151,98.155 14.4484,98.8217 17.5,100.5 Z"/></g>
<g><path style="opacity:1" fill="#98a4b6" d="M 113.5,109.5 C 113.5,110.833 114.167,111.5 115.5,111.5C 115.516,113.484 114.516,114.484 112.5,114.5C 111.287,114.253 110.62,113.586 110.5,112.5C 111.434,111.432 111.768,110.099 111.5,108.5C 108.45,109.077 106.45,107.91 105.5,105C 101.151,102.793 96.4848,101.96 91.5,102.5C 92.2623,100.738 93.5956,99.7376 95.5,99.5C 98.1,98.6347 100.767,97.968 103.5,97.5C 106.609,98.2775 108.276,100.278 108.5,103.5C 112.314,103.651 113.981,105.651 113.5,109.5 Z"/></g>
<g><path style="opacity:1" fill="#8995ac" d="M 91.5,102.5 C 96.4848,101.96 101.151,102.793 105.5,105C 106.45,107.91 108.45,109.077 111.5,108.5C 111.768,110.099 111.434,111.432 110.5,112.5C 107.496,114.187 104.829,116.187 102.5,118.5C 100.056,117.233 97.7231,115.733 95.5,114C 94.1495,111.736 92.4828,109.902 90.5,108.5C 90.67,107.178 90.3366,106.011 89.5,105C 90.3805,104.292 91.0472,103.458 91.5,102.5 Z"/></g>
<g><path style="opacity:1" fill="#94a3bb" d="M 14.5,49.5 C 14.3338,55.5092 14.5005,61.5092 15,67.5C 15.2321,68.7375 15.7321,69.7375 16.5,70.5C 17.2616,74.785 18.5949,78.785 20.5,82.5C 20.2407,84.9893 21.2407,86.656 23.5,87.5C 27.5692,93.9042 32.9025,98.9042 39.5,102.5C 39.9731,103.906 40.9731,104.573 42.5,104.5C 44.8478,106.097 47.5145,107.097 50.5,107.5C 51.6808,109.067 53.3474,109.901 55.5,110C 62.3536,110.695 69.187,110.528 76,109.5C 77.6811,109.392 78.8478,108.725 79.5,107.5C 83.7152,106.268 87.7152,104.601 91.5,102.5C 91.0472,103.458 90.3805,104.292 89.5,105C 90.3366,106.011 90.67,107.178 90.5,108.5C 93.5097,113.191 96.843,117.691 100.5,122C 100.022,123.303 99.355,124.469 98.5,125.5C 81.5,125.5 64.5,125.5 47.5,125.5C 47.8204,122.102 47.487,118.768 46.5,115.5C 45.914,115.709 45.414,116.043 45,116.5C 44.502,119.482 44.3354,122.482 44.5,125.5C 37.1667,125.5 29.8333,125.5 22.5,125.5C 22.6641,122.813 22.4974,120.146 22,117.5C 19.7121,114.557 17.8788,110.891 16.5,106.5C 17.5,105.5 18.5,104.5 19.5,103.5C 21.6666,104.792 23.9999,105.625 26.5,106C 31.22,106.221 35.8867,106.721 40.5,107.5C 40.8333,107.167 41.1667,106.833 41.5,106.5C 36.2709,104.277 30.9376,102.444 25.5,101C 22.854,100.503 20.1873,100.336 17.5,100.5C 17.6641,97.8127 17.4974,95.146 17,92.5C 15.3333,86.8333 13.6667,81.1667 12,75.5C 11.6576,52.8918 10.6576,52.8918 9,75.5C 7.49121,77.9193 5.32454,78.9193 2.5,78.5C 2.21997,75.7276 2.88664,73.2276 4.5,71C 2.86586,70.5065 1.19919,70.3398 -0.5,70.5C -0.5,60.8333 -0.5,51.1667 -0.5,41.5C 0.264547,36.961 1.09788,32.2943 2,27.5C 3.09221,23.5719 5.59221,21.2386 9.5,20.5C 9.50454,24.5341 9.83787,28.5341 10.5,32.5C 9.5,32.5 8.5,32.5 7.5,32.5C 7.49593,42.0406 6.82926,51.5406 5.5,61C 5.83333,64.1667 6.16667,67.3333 6.5,70.5C 7.56559,64.178 8.56559,57.8447 9.5,51.5C 10.086,51.2907 10.586,50.9574 11,50.5C 11.5788,48.3513 12.0788,46.1846 12.5,44C 9.24637,40.7889 9.91304,39.2889 14.5,39.5C 14.1634,43.0111 14.1634,46.3444 14.5,49.5 Z"/></g>
<g><path style="opacity:1" fill="#c7cfd9" d="M 39.5,102.5 C 41.0269,102.427 42.0269,103.094 42.5,104.5C 40.9731,104.573 39.9731,103.906 39.5,102.5 Z"/></g>
<g><path style="opacity:1" fill="#b0bbcb" d="M 50.5,107.5 C 60.1552,110.066 69.8219,110.066 79.5,107.5C 78.8478,108.725 77.6811,109.392 76,109.5C 69.187,110.528 62.3536,110.695 55.5,110C 53.3474,109.901 51.6808,109.067 50.5,107.5 Z"/></g>
<g><path style="opacity:1" fill="#909fb7" d="M 90.5,108.5 C 92.4828,109.902 94.1495,111.736 95.5,114C 97.7231,115.733 100.056,117.233 102.5,118.5C 104.829,116.187 107.496,114.187 110.5,112.5C 110.62,113.586 111.287,114.253 112.5,114.5C 114.516,114.484 115.516,113.484 115.5,111.5C 117.344,112.16 119.01,113.16 120.5,114.5C 122.851,113.827 125.184,113.16 127.5,112.5C 122.273,116.607 117.273,120.94 112.5,125.5C 107.833,125.5 103.167,125.5 98.5,125.5C 99.355,124.469 100.022,123.303 100.5,122C 96.843,117.691 93.5097,113.191 90.5,108.5 Z"/></g>
<g><path style="opacity:1" fill="#6c7b94" d="M 127.5,112.5 C 128.167,112.5 128.833,112.5 129.5,112.5C 129.5,114.5 129.5,116.5 129.5,118.5C 126.785,120.548 124.452,122.882 122.5,125.5C 119.167,125.5 115.833,125.5 112.5,125.5C 117.273,120.94 122.273,116.607 127.5,112.5 Z"/></g>
<g><path style="opacity:1" fill="#8090a7" d="M 47.5,125.5 C 46.5,125.5 45.5,125.5 44.5,125.5C 44.3354,122.482 44.502,119.482 45,116.5C 45.414,116.043 45.914,115.709 46.5,115.5C 47.487,118.768 47.8204,122.102 47.5,125.5 Z"/></g>
<g><path style="opacity:1" fill="#92a0b9" d="M 129.5,118.5 C 129.5,120.833 129.5,123.167 129.5,125.5C 127.167,125.5 124.833,125.5 122.5,125.5C 124.452,122.882 126.785,120.548 129.5,118.5 Z"/></g>
</svg>
