<svg id="a" viewBox="0 0 412.714 97.445" xmlns="http://www.w3.org/2000/svg" xmlns:xlink="http://www.w3.org/1999/xlink"><defs><style>.j{fill:#fff;}.k{clip-path:url(#c);}.l{clip-path:url(#b);}.m{clip-path:url(#f);}.n{clip-path:url(#e);}.o{clip-path:url(#d);}.p{clip-path:url(#i);}.q{clip-path:url(#h);}.r{clip-path:url(#g);}</style><clipPath id="b"><path class="j" d="M60.685,39.988c-1.848,.494-3.572,1.182-5.174,2.057-1.601,.878-3.059,1.925-4.374,3.145-1.313,1.22-2.505,2.572-3.573,4.059h-.229c-1.524-3.431-3.745-5.956-6.66-7.576-2.914-1.62-6.203-2.43-9.861-2.43-2.06,0-4.011,.258-5.861,.772-1.849,.515-3.547,1.192-5.089,2.031-1.544,.837-2.923,1.81-4.144,2.916-1.221,1.105-2.23,2.228-3.029,3.373h-.23l-1.258-7.718H0v55.398H13.547V57.882c.916-1.105,1.936-2.108,3.061-3.001,1.124-.896,2.304-1.658,3.544-2.288s2.486-1.115,3.743-1.459c1.26-.343,2.479-.515,3.661-.515,2.247,.039,3.974,.571,5.174,1.604,1.2,1.027,2.008,2.378,2.427,4.055,.193,.765,.325,1.658,.403,2.688,.075,1.029,.116,2.135,.116,3.316v33.73h13.548V57.882c.913-1.105,1.933-2.108,3.057-3.001,1.126-.896,2.309-1.658,3.547-2.288,1.239-.628,2.487-1.115,3.746-1.459,1.258-.343,2.476-.515,3.66-.515,2.209,.039,3.925,.571,5.146,1.604,1.218,1.027,2.036,2.378,2.456,4.055,.191,.765,.324,1.658,.401,2.688,.077,1.029,.114,2.135,.114,3.316v33.73h13.55V61.653c0-1.676-.04-3.164-.116-4.459-.077-1.294-.2-2.475-.371-3.545-.173-1.065-.391-2.028-.656-2.885-.269-.857-.593-1.648-.976-2.373-1.447-2.821-3.513-5.041-6.2-6.659-2.688-1.622-6.011-2.451-9.977-2.489-2.101-.001-4.071,.248-5.921,.744"></path></clipPath><clipPath id="c"><path class="j" d="M100.103,96.012h13.548V40.614h-13.548v55.398Zm-.343-68.089h14.232V13.23h-14.232v14.693Z"></path></clipPath><clipPath id="d"><path class="j" d="M174.999,40.014c-1.886,.515-3.611,1.192-5.173,2.031-1.563,.837-2.956,1.81-4.173,2.916-1.221,1.105-2.229,2.228-3.029,3.373h-.23l-1.256-7.718h-11.206v55.398h13.55V57.882c1.865-2.362,4.007-4.165,6.43-5.403,2.419-1.239,4.948-1.859,7.576-1.859,1.979,0,3.667,.382,5.06,1.142,1.389,.765,2.429,2.022,3.114,3.775,.306,.798,.518,1.735,.632,2.803,.113,1.066,.169,2.341,.169,3.827v33.846h13.551V60.052c0-1.83-.07-3.439-.202-4.831-.134-1.39-.392-2.678-.773-3.861-.685-2.133-1.627-3.972-2.829-5.515-1.2-1.546-2.582-2.801-4.144-3.775-1.563-.971-3.288-1.686-5.175-2.144-1.884-.456-3.84-.687-5.861-.687-2.131,.001-4.14,.26-6.03,.773"></path></clipPath><clipPath id="e"><path class="j" d="M250.834,40.614v32.699c0,3.202-.437,5.699-1.313,7.491-.877,1.866-2.18,3.258-3.915,4.172-1.736,.916-3.823,1.371-6.263,1.371-2.322,0-4.325-.408-6-1.227-1.679-.822-2.974-2.068-3.887-3.748-.537-.99-.935-2.161-1.199-3.514-.268-1.352-.402-2.965-.402-4.832V40.614h-13.55v33.846c0,2.514,.239,4.8,.713,6.859,.482,2.059,1.213,3.944,2.204,5.66,1.867,3.202,4.631,5.746,8.288,7.632,3.66,1.887,8.271,2.831,13.833,2.831,2.935,0,5.595-.276,7.978-.83,2.38-.553,4.514-1.332,6.402-2.343,1.887-1.009,3.526-2.232,4.916-3.658,1.393-1.428,2.525-3.02,3.403-4.775,1.56-3.087,2.343-6.878,2.343-11.374V40.614h-13.551Z"></path></clipPath><clipPath id="f"><path class="j" d="M324.276,86.091c-1.142-.36-2.2-.818-3.172-1.369-.976-.553-1.852-1.161-2.634-1.83-.779-.667-1.436-1.306-1.969-1.916v-26.526c1.678-1.336,3.544-2.402,5.604-3.205,2.056-.797,4.08-1.199,6.059-1.199,1.449,0,2.906,.229,4.376,.687,1.464,.456,2.877,1.344,4.229,2.657,1.354,1.316,2.447,3.223,3.286,5.72,.837,2.496,1.258,5.48,1.258,8.945,0,2.782-.286,5.308-.857,7.575-.572,2.269-1.421,4.221-2.544,5.859-1.126,1.639-2.515,2.906-4.17,3.805-1.66,.895-3.593,1.341-5.805,1.341-1.301,0-2.517-.18-3.658-.544m-21.325-72.861V83.033c0,2.175-.029,4.471-.087,6.891-.057,2.42-.127,4.45-.2,6.088h11.202l1.316-5.89h.227c.494,.649,1.172,1.392,2.031,2.232,.853,.839,1.915,1.639,3.17,2.399,1.258,.765,2.726,1.401,4.401,1.914,1.68,.515,3.567,.775,5.66,.775,2.977,0,5.926-.602,8.864-1.8,2.932-1.2,5.575-3.04,7.921-5.517,2.343-2.476,4.237-5.642,5.686-9.49,1.447-3.848,2.17-8.27,2.17-13.264,0-4.688-.667-8.834-2.001-12.433-1.33-3.604-3.135-6.556-5.403-8.861-2.267-2.306-4.859-4.021-7.773-5.147-2.914-1.124-5.918-1.686-9.004-1.686-1.565,0-3.05,.135-4.458,.402-1.41,.265-2.723,.628-3.946,1.086-1.221,.456-2.345,.971-3.371,1.544-1.031,.571-1.986,1.163-2.86,1.771h-.113c.036-.762,.066-1.84,.085-3.228,.017-1.392,.029-2.906,.029-4.546V13.23h-13.548Z"></path></clipPath><clipPath id="g"><path class="j" d="M383.558,86.176c-.991-.303-1.856-.762-2.602-1.369-.743-.61-1.333-1.38-1.773-2.316-.437-.937-.659-2.031-.659-3.287,0-2.705,.962-4.716,2.886-6.031,1.926-1.315,4.547-1.972,7.861-1.972,1.718,0,3.411,.123,5.092,.374,1.672,.247,3.16,.523,4.458,.826v8.461c-.575,.65-1.269,1.316-2.087,2.003-.822,.687-1.746,1.306-2.775,1.859s-2.155,1.011-3.372,1.369c-1.221,.364-2.518,.544-3.889,.544-1.104-.003-2.151-.155-3.142-.462m-5.315-45.904c-3.128,.648-6.08,1.581-8.863,2.801v10.575c3.203-1.22,6.173-2.134,8.919-2.744,2.743-.609,5.491-.914,8.232-.914,2.249,0,4.156,.276,5.715,.83,1.566,.553,2.832,1.297,3.803,2.229,.973,.935,1.678,2.003,2.113,3.203,.438,1.198,.663,2.447,.663,3.743v2.23c-1.526-.42-3.298-.782-5.319-1.086s-4.232-.459-6.631-.459c-3.28,0-6.27,.431-8.976,1.288-2.709,.857-5.033,2.108-6.976,3.746-1.943,1.64-3.459,3.639-4.544,6.002-1.087,2.363-1.627,5.03-1.627,8.003,0,2.708,.463,5.154,1.397,7.347,.937,2.193,2.223,4.059,3.861,5.604,1.64,1.542,3.602,2.724,5.891,3.544,2.285,.819,4.744,1.23,7.372,1.23,1.946,0,3.753-.229,5.435-.687,1.675-.455,3.199-1.057,4.571-1.8,1.369-.743,2.588-1.534,3.658-2.371,1.068-.839,1.981-1.658,2.745-2.459h.227l.569,5.89h12.235c-.078-2.06-.154-4.402-.227-7.034-.08-2.63-.116-5.774-.116-9.431v-20.866c0-2.78-.505-5.355-1.514-7.718-1.012-2.363-2.536-4.412-4.572-6.145-2.038-1.735-4.575-3.097-7.603-4.087-3.033-.991-6.567-1.488-10.609-1.488-3.429,.032-6.706,.377-9.83,1.024"></path></clipPath><clipPath id="h"><path class="j" d="M272.813,66.558c0,6.404,5.192,11.6,11.598,11.6s11.6-5.196,11.6-11.6-5.193-11.6-11.6-11.6-11.598,5.192-11.598,11.6"></path></clipPath><clipPath id="i"><rect class="j" height="41.112" width="8.686" x="127.638"></rect></clipPath></defs><g><path class="j" d="M60.685,39.988c-1.848,.494-3.572,1.182-5.174,2.057-1.601,.878-3.059,1.925-4.374,3.145-1.313,1.22-2.505,2.572-3.573,4.059h-.229c-1.524-3.431-3.745-5.956-6.66-7.576-2.914-1.62-6.203-2.43-9.861-2.43-2.06,0-4.011,.258-5.861,.772-1.849,.515-3.547,1.192-5.089,2.031-1.544,.837-2.923,1.81-4.144,2.916-1.221,1.105-2.23,2.228-3.029,3.373h-.23l-1.258-7.718H0v55.398H13.547V57.882c.916-1.105,1.936-2.108,3.061-3.001,1.124-.896,2.304-1.658,3.544-2.288s2.486-1.115,3.743-1.459c1.26-.343,2.479-.515,3.661-.515,2.247,.039,3.974,.571,5.174,1.604,1.2,1.027,2.008,2.378,2.427,4.055,.193,.765,.325,1.658,.403,2.688,.075,1.029,.116,2.135,.116,3.316v33.73h13.548V57.882c.913-1.105,1.933-2.108,3.057-3.001,1.126-.896,2.309-1.658,3.547-2.288,1.239-.628,2.487-1.115,3.746-1.459,1.258-.343,2.476-.515,3.66-.515,2.209,.039,3.925,.571,5.146,1.604,1.218,1.027,2.036,2.378,2.456,4.055,.191,.765,.324,1.658,.401,2.688,.077,1.029,.114,2.135,.114,3.316v33.73h13.55V61.653c0-1.676-.04-3.164-.116-4.459-.077-1.294-.2-2.475-.371-3.545-.173-1.065-.391-2.028-.656-2.885-.269-.857-.593-1.648-.976-2.373-1.447-2.821-3.513-5.041-6.2-6.659-2.688-1.622-6.011-2.451-9.977-2.489-2.101-.001-4.071,.248-5.921,.744"></path><g class="l"><rect class="j" height="56.77" width="84.896" y="39.242"></rect></g></g><g><path class="j" d="M100.103,96.012h13.548V40.614h-13.548v55.398Zm-.343-68.089h14.232V13.23h-14.232v14.693Z"></path><g class="k"><rect class="j" height="82.782" width="14.232" x="99.759" y="13.23"></rect></g></g><g><path class="j" d="M174.999,40.014c-1.886,.515-3.611,1.192-5.173,2.031-1.563,.837-2.956,1.81-4.173,2.916-1.221,1.105-2.229,2.228-3.029,3.373h-.23l-1.256-7.718h-11.206v55.398h13.55V57.882c1.865-2.362,4.007-4.165,6.43-5.403,2.419-1.239,4.948-1.859,7.576-1.859,1.979,0,3.667,.382,5.06,1.142,1.389,.765,2.429,2.022,3.114,3.775,.306,.798,.518,1.735,.632,2.803,.113,1.066,.169,2.341,.169,3.827v33.846h13.551V60.052c0-1.83-.07-3.439-.202-4.831-.134-1.39-.392-2.678-.773-3.861-.685-2.133-1.627-3.972-2.829-5.515-1.2-1.546-2.582-2.801-4.144-3.775-1.563-.971-3.288-1.686-5.175-2.144-1.884-.456-3.84-.687-5.861-.687-2.131,.001-4.14,.26-6.03,.773"></path><g class="o"><rect class="j" height="56.77" width="50.081" x="149.932" y="39.242"></rect></g></g><g><path class="j" d="M250.834,40.614v32.699c0,3.202-.437,5.699-1.313,7.491-.877,1.866-2.18,3.258-3.915,4.172-1.736,.916-3.823,1.371-6.263,1.371-2.322,0-4.325-.408-6-1.227-1.679-.822-2.974-2.068-3.887-3.748-.537-.99-.935-2.161-1.199-3.514-.268-1.352-.402-2.965-.402-4.832V40.614h-13.55v33.846c0,2.514,.239,4.8,.713,6.859,.482,2.059,1.213,3.944,2.204,5.66,1.867,3.202,4.631,5.746,8.288,7.632,3.66,1.887,8.271,2.831,13.833,2.831,2.935,0,5.595-.276,7.978-.83,2.38-.553,4.514-1.332,6.402-2.343,1.887-1.009,3.526-2.232,4.916-3.658,1.393-1.428,2.525-3.02,3.403-4.775,1.56-3.087,2.343-6.878,2.343-11.374V40.614h-13.551Z"></path><g class="n"><rect class="j" height="56.826" width="50.081" x="214.304" y="40.614"></rect></g></g><g><path class="j" d="M324.276,86.091c-1.142-.36-2.2-.818-3.172-1.369-.976-.553-1.852-1.161-2.634-1.83-.779-.667-1.436-1.306-1.969-1.916v-26.526c1.678-1.336,3.544-2.402,5.604-3.205,2.056-.797,4.08-1.199,6.059-1.199,1.449,0,2.906,.229,4.376,.687,1.464,.456,2.877,1.344,4.229,2.657,1.354,1.316,2.447,3.223,3.286,5.72,.837,2.496,1.258,5.48,1.258,8.945,0,2.782-.286,5.308-.857,7.575-.572,2.269-1.421,4.221-2.544,5.859-1.126,1.639-2.515,2.906-4.17,3.805-1.66,.895-3.593,1.341-5.805,1.341-1.301,0-2.517-.18-3.658-.544m-21.325-72.861V83.033c0,2.175-.029,4.471-.087,6.891-.057,2.42-.127,4.45-.2,6.088h11.202l1.316-5.89h.227c.494,.649,1.172,1.392,2.031,2.232,.853,.839,1.915,1.639,3.17,2.399,1.258,.765,2.726,1.401,4.401,1.914,1.68,.515,3.567,.775,5.66,.775,2.977,0,5.926-.602,8.864-1.8,2.932-1.2,5.575-3.04,7.921-5.517,2.343-2.476,4.237-5.642,5.686-9.49,1.447-3.848,2.17-8.27,2.17-13.264,0-4.688-.667-8.834-2.001-12.433-1.33-3.604-3.135-6.556-5.403-8.861-2.267-2.306-4.859-4.021-7.773-5.147-2.914-1.124-5.918-1.686-9.004-1.686-1.565,0-3.05,.135-4.458,.402-1.41,.265-2.723,.628-3.946,1.086-1.221,.456-2.345,.971-3.371,1.544-1.031,.571-1.986,1.163-2.86,1.771h-.113c.036-.762,.066-1.84,.085-3.228,.017-1.392,.029-2.906,.029-4.546V13.23h-13.548Z"></path><g class="m"><rect class="j" height="84.21" width="52.65" x="302.666" y="13.23"></rect></g></g><g><path class="j" d="M383.558,86.176c-.991-.303-1.856-.762-2.602-1.369-.743-.61-1.333-1.38-1.773-2.316-.437-.937-.659-2.031-.659-3.287,0-2.705,.962-4.716,2.886-6.031,1.926-1.315,4.547-1.972,7.861-1.972,1.718,0,3.411,.123,5.092,.374,1.672,.247,3.16,.523,4.458,.826v8.461c-.575,.65-1.269,1.316-2.087,2.003-.822,.687-1.746,1.306-2.775,1.859s-2.155,1.011-3.372,1.369c-1.221,.364-2.518,.544-3.889,.544-1.104-.003-2.151-.155-3.142-.462m-5.315-45.904c-3.128,.648-6.08,1.581-8.863,2.801v10.575c3.203-1.22,6.173-2.134,8.919-2.744,2.743-.609,5.491-.914,8.232-.914,2.249,0,4.156,.276,5.715,.83,1.566,.553,2.832,1.297,3.803,2.229,.973,.935,1.678,2.003,2.113,3.203,.438,1.198,.663,2.447,.663,3.743v2.23c-1.526-.42-3.298-.782-5.319-1.086s-4.232-.459-6.631-.459c-3.28,0-6.27,.431-8.976,1.288-2.709,.857-5.033,2.108-6.976,3.746-1.943,1.64-3.459,3.639-4.544,6.002-1.087,2.363-1.627,5.03-1.627,8.003,0,2.708,.463,5.154,1.397,7.347,.937,2.193,2.223,4.059,3.861,5.604,1.64,1.542,3.602,2.724,5.891,3.544,2.285,.819,4.744,1.23,7.372,1.23,1.946,0,3.753-.229,5.435-.687,1.675-.455,3.199-1.057,4.571-1.8,1.369-.743,2.588-1.534,3.658-2.371,1.068-.839,1.981-1.658,2.745-2.459h.227l.569,5.89h12.235c-.078-2.06-.154-4.402-.227-7.034-.08-2.63-.116-5.774-.116-9.431v-20.866c0-2.78-.505-5.355-1.514-7.718-1.012-2.363-2.536-4.412-4.572-6.145-2.038-1.735-4.575-3.097-7.603-4.087-3.033-.991-6.567-1.488-10.609-1.488-3.429,.032-6.706,.377-9.83,1.024"></path><g class="r"><rect class="j" height="58.199" width="47.963" x="364.752" y="39.242"></rect></g></g><g><path class="j" d="M272.813,66.558c0,6.404,5.192,11.6,11.598,11.6s11.6-5.196,11.6-11.6-5.193-11.6-11.6-11.6-11.598,5.192-11.598,11.6"></path><g class="q"><rect class="j" height="23.198" width="23.197" x="272.813" y="54.958"></rect></g></g><g><rect class="j" height="41.112" width="8.686" x="127.638"></rect><g class="p"><rect class="j" height="41.112" width="8.686" x="127.638"></rect></g></g></svg>